<?xml version="1.0" encoding="iso-8859-1"?>
<!-- Generator: Adobe Illustrator 19.0.0, SVG Export Plug-In . SVG Version: 6.00 Build 0)  -->
<svg version="1.1" id="Capa_1" xmlns="http://www.w3.org/2000/svg" xmlns:xlink="http://www.w3.org/1999/xlink" x="0px" y="0px"
	 viewBox="0 0 512.247 512.247" style="enable-background:new 0 0 512.247 512.247;" xml:space="preserve">
<g transform="translate(1 1) rotate(180, 256.1235, 256.1235)">
	<g transform="translate(2 2)">
		<g>
			<path style="fill:#ffd299;" d="M186.942,447.567c-17.114,37.739-56.995,59.745-98.048,54.101
				c-9.058-1.182-17.888-3.713-26.197-7.509C24.581,476.869,2.54,436.412,8.681,395.012c6.141-41.401,38.976-73.718,80.469-79.2
				h0.171c5.617-0.855,11.31-1.113,16.981-0.768c11.775,0.549,23.335,3.359,34.048,8.277c5.35,2.404,10.439,5.349,15.189,8.789
				C192.458,358.003,205.66,406.542,186.942,447.567z"/>
			<path style="fill:#ffd299;" d="M494.228,447.567c-17.152,37.747-57.059,59.747-98.133,54.101
				c-9.067-1.142-17.903-3.675-26.197-7.509c-42.246-19.189-64.118-66.38-51.456-111.019c1.305-4.519,2.93-8.939,4.864-13.227
				c13.242-29.29,40.603-49.723,72.448-54.101c17.629-2.541,35.616,0.066,51.797,7.509c22.677,10.274,40.339,29.142,49.094,52.447
				C505.4,399.073,504.53,424.903,494.228,447.567z"/>
			<path style="fill:#ffd299;" d="M348.99,101.54c-0.025,45.871-33.18,85.014-78.421,92.587c-5.103,0.86-10.27,1.288-15.445,1.28
				c-49.183-0.228-89.85-38.38-93.213-87.449s31.721-92.412,80.413-99.346c4.234-0.658,8.515-0.972,12.8-0.939
				c24.899-0.014,48.782,9.872,66.389,27.478C339.119,52.758,349.004,76.641,348.99,101.54z"/>
		</g>
		<g>
			<path style="fill:#fff3e5;" d="M161.342,447.567c-13.242,29.29-40.603,49.723-72.448,54.101
				c-9.058-1.182-17.888-3.713-26.197-7.509C24.581,476.869,2.54,436.412,8.681,395.012c6.141-41.401,38.976-73.718,80.469-79.2
				h0.171c8.785,1.306,17.344,3.834,25.429,7.509c5.35,2.404,10.439,5.349,15.189,8.789
				C166.858,358.003,180.06,406.542,161.342,447.567z"/>
			<path style="fill:#fff3e5;" d="M468.628,447.567c-13.298,29.281-40.676,49.702-72.533,54.101
				c-9.067-1.142-17.903-3.675-26.197-7.509c-42.246-19.189-64.118-66.38-51.456-111.019c1.305-4.519,2.93-8.939,4.864-13.227
				c13.242-29.29,40.603-49.723,72.448-54.101c9.058,1.182,17.888,3.713,26.197,7.509c22.677,10.274,40.339,29.142,49.094,52.447
				C479.8,399.073,478.93,424.903,468.628,447.567z"/>
			<path style="fill:#fff3e5;" d="M323.39,101.54c-0.025,45.871-33.18,85.014-78.421,92.587c-0.927,0.198-1.869,0.312-2.816,0.341
				c-46.413-6.442-80.954-46.145-80.911-93.002c0.043-46.858,34.657-86.497,81.081-92.854
				C288.799,14.927,323.441,54.638,323.39,101.54z"/>
		</g>
		<g>
			<circle style="fill:#FFFFFF;" cx="66.213" cy="383.311" r="17.067"/>
			<circle style="fill:#FFFFFF;" cx="383.294" cy="451.407" r="17.067"/>
		</g>
		<g>
			<path style="fill:#fff3e5;" d="M403.262,372.815c-3.895,2.237-8.308,3.414-12.8,3.413c-9.137,0.034-17.584-4.858-22.101-12.8
				l-16.811-29.099l-80.981-140.203c17.234-2.835,33.321-10.465,46.421-22.016L399.678,315.3l12.971,22.528
				c3.399,5.883,4.319,12.877,2.558,19.439C413.447,363.829,409.15,369.423,403.262,372.815z"/>
			<path style="fill:#fff3e5;" d="M318.441,434.34H178.324c-14.138,0-25.6-11.462-25.6-25.6c0-14.138,11.462-25.6,25.6-25.6h140.117
				C313.662,399.872,313.662,417.608,318.441,434.34z"/>
		</g>
		<circle style="fill:#FFFFFF;" cx="263.657" cy="58.873" r="17.067"/>
		<path style="fill:#fff3e5;" d="M252.905,163.151c-0.347,0.821-0.746,1.619-1.195,2.389l-16.043,27.819l-80.043,138.667
			l-0.085,0.085c-4.75-3.44-9.84-6.385-15.189-8.789c-10.713-4.918-22.273-7.728-34.048-8.277v-0.085l83.968-145.493l17.067-29.525
			c3.392-5.887,8.985-10.184,15.548-11.945c6.562-1.761,13.556-0.84,19.439,2.558C253.621,137.152,258.173,151.175,252.905,163.151z
			"/>
		<g>
			<path style="fill:#FFFFFF;" d="M16.105,369.914c-10.318,22.652-11.204,48.477-2.464,71.783
				c8.74,23.306,26.389,42.18,49.056,52.462c8.309,3.796,17.139,6.327,26.197,7.509c8.408,1.142,16.932,1.128,25.335-0.043
				c-8.966-1.194-17.705-3.71-25.933-7.467c-38.116-17.289-60.157-57.746-54.016-99.147c6.141-41.401,38.976-73.718,80.469-79.2
				h0.171c5.617-0.855,11.31-1.113,16.981-0.768v-0.085l83.968-145.493c-26.03-24.876-35.537-62.45-24.47-96.712
				s40.757-59.175,76.421-64.124c-4.206-0.604-8.448-0.923-12.698-0.956c-4.285-0.033-8.566,0.281-12.8,0.939
				c-35.685,4.914-65.411,29.816-76.502,64.087c-11.091,34.272-1.592,71.868,24.448,96.757l-83.968,145.502v0.085
				c-5.672-0.345-11.364-0.087-16.981,0.768H89.15C57.064,319.95,29.417,340.427,16.105,369.914z"/>
			<path style="fill:#FFFFFF;" d="M261.31,193.291l-0.043,0.068l-1.058,1.843c2.56-0.137,5.12-0.384,7.603-0.725h-0.06
				C265.569,194.169,263.435,193.7,261.31,193.291z"/>
		</g>
	</g>
	<g>
		<polygon style="fill:#FFFFFF;" points="199.66,175.732 144.211,271.809 115.692,321.225 100.913,312.692 129.431,263.284 
			184.881,167.199 		"/>
		<g>
			<path style="fill:#ff8f00;" d="M151.413,235.807c0.666,0.896,1.505,1.651,2.466,2.219c2.992,1.752,6.747,1.519,9.5-0.59
				c2.753-2.109,3.956-5.673,3.044-9.019l-0.597-1.527c-0.249-0.519-0.568-1.001-0.947-1.434c-0.294-0.457-0.657-0.865-1.075-1.212
				c-0.439-0.366-0.904-0.699-1.391-0.998c-1.977-1.091-4.293-1.395-6.485-0.853c-1.075,0.32-2.08,0.841-2.961,1.536
				c-2.704,2.118-3.916,5.624-3.098,8.96C150.198,233.948,150.722,234.938,151.413,235.807z"/>
			<path style="fill:#ff8f00;" d="M410.724,308.34c-1.451,0-2.859,0.137-4.267,0.196l-76.8-132.958
				c32.63-32.836,39.155-83.488,15.912-123.522c-23.243-40.034-70.466-59.48-115.16-47.423s-75.73,52.615-75.685,98.907
				c-0.084,25.631,9.569,50.336,27.008,69.12l-13.918,24.115c-2.356,4.084-0.956,9.304,3.127,11.661
				c4.084,2.356,9.304,0.956,11.661-3.127l17.067-29.559l17.067-29.508c3.198-5.602,9.29-8.913,15.73-8.552
				c6.44,0.362,12.123,4.334,14.674,10.258c1.998,4.488,1.951,9.621-0.128,14.071c-0.198,0.448-0.423,0.884-0.674,1.306
				l-91.665,158.737c-10.072-5.838-21.072-9.902-32.521-12.015l26.325-45.619c2.318-4.078,0.911-9.262-3.151-11.608
				c-4.062-2.345-9.256-0.972-11.628,3.074l-30.276,52.446c-52.077-0.007-95.866,39.073-101.757,90.815s27.99,99.667,78.736,111.367
				c50.746,11.7,102.191-16.55,119.55-65.649h114.347c17.363,49.111,68.829,77.361,119.583,65.641
				c50.755-11.72,84.623-59.675,78.695-111.427C506.648,347.336,462.814,308.281,410.724,308.34z M407.259,344.086
				c2.268,3.922,2.883,8.586,1.71,12.962c-1.173,4.376-4.039,8.106-7.964,10.368c-8.18,4.461-18.421,1.703-23.253-6.263
				l-92.032-159.326c11.036-3.201,21.449-8.25,30.797-14.933L407.259,344.086z M201.947,137.673l-11.204,19.388
				c-12.32-15.11-19.018-34.025-18.953-53.521c0-45.305,35.404-82.714,80.64-85.205s84.535,30.802,89.51,75.833
				s-26.107,86.101-70.797,93.544c-6.523,1.055-13.148,1.341-19.738,0.853l9.788-16.947c0.55-0.954,1.043-1.94,1.476-2.953
				c7.087-15.975,1.021-34.724-14.08-43.52C232.243,115.786,211.405,121.382,201.947,137.673z M103.524,496.074
				c-47.128,0-85.333-38.205-85.333-85.333s38.205-85.333,85.333-85.333c1.51,0,2.867,0,4.343,0.068
				c32.308,1.643,60.893,21.455,73.771,51.132h-1.314c-18.851,0-34.133,15.282-34.133,34.133c0,18.851,15.282,34.133,34.133,34.133
				h1.331C168.047,475.905,137.408,495.983,103.524,496.074z M309.791,427.807H180.324c-9.426,0-17.067-7.641-17.067-17.067
				s7.641-17.067,17.067-17.067h129.468C307.835,404.967,307.835,416.513,309.791,427.807z M314.246,376.607H199.95
				c-6.167-17.476-16.962-32.951-31.232-44.774l73.387-127.147c4.968,0.793,9.988,1.212,15.019,1.254
				c3.638-0.022,7.273-0.238,10.889-0.649l74.556,129.084C329.676,345.804,319.926,360.342,314.246,376.607z M410.724,496.074
				c-38.164-0.079-71.66-25.431-82.099-62.14c-4.329-15.191-4.329-31.29,0-46.481c4.053-14.425,11.887-27.505,22.69-37.888
				l11.622,20.07c5.846,11.031,17.246,17.99,29.729,18.148c12.483,0.158,24.056-6.512,30.178-17.391s5.817-24.233-0.797-34.821
				l-5.709-9.882c45.945,2.983,81.227,41.895,79.711,87.912C494.533,459.617,456.765,496.122,410.724,496.074z"/>
			<path style="fill:#ff8f00;" d="M291.257,60.873c0-14.138-11.462-25.6-25.6-25.6c-14.139,0-25.6,11.462-25.6,25.6
				s11.462,25.6,25.6,25.6C279.796,86.473,291.257,75.012,291.257,60.873z M257.124,60.873c0-4.713,3.821-8.533,8.533-8.533
				s8.533,3.821,8.533,8.533s-3.82,8.533-8.533,8.533S257.124,65.586,257.124,60.873z"/>
			<path style="fill:#ff8f00;" d="M69.39,359.54c-14.138,0-25.6,11.462-25.6,25.6c0,14.138,11.462,25.6,25.6,25.6
				s25.6-11.462,25.6-25.6C94.99,371.002,83.529,359.54,69.39,359.54z M69.39,393.674c-4.713,0-8.533-3.821-8.533-8.533
				s3.821-8.533,8.533-8.533c4.713,0,8.533,3.82,8.533,8.533S74.103,393.674,69.39,393.674z"/>
			<path style="fill:#ff8f00;" d="M385.124,427.807c-14.138,0-25.6,11.462-25.6,25.6c0,14.138,11.462,25.6,25.6,25.6
				c14.138,0,25.6-11.462,25.6-25.6C410.724,439.268,399.262,427.807,385.124,427.807z M385.124,461.94
				c-4.713,0-8.533-3.821-8.533-8.533c0-4.713,3.821-8.533,8.533-8.533s8.533,3.821,8.533,8.533
				C393.657,458.12,389.837,461.94,385.124,461.94z"/>
		</g>
	</g>
</g>
</svg>
