<?xml version="1.0" standalone="no"?>
<!DOCTYPE svg PUBLIC "-//W3C//DTD SVG 20010904//EN"
 "http://www.w3.org/TR/2001/REC-SVG-20010904/DTD/svg10.dtd">
<svg version="1.0" xmlns="http://www.w3.org/2000/svg"
 width="512.000000pt" height="512.000000pt" viewBox="0 0 512.000000 512.000000"
 preserveAspectRatio="xMidYMid meet">
<metadata>
Created by potrace 1.11, written by Peter Selinger 2001-2013
</metadata>
<g transform="translate(0.000000,512.000000) scale(0.100000,-0.100000)"
fill="#000000" stroke="none">
<path d="M854 5105 c-112 -20 -263 -75 -358 -132 -105 -63 -252 -204 -322
-310 -137 -204 -196 -458 -165 -698 16 -120 75 -291 136 -394 58 -97 171 -222
264 -293 150 -113 358 -189 565 -205 l99 -8 378 -655 c208 -360 379 -660 379
-666 0 -5 -14 -23 -31 -40 -85 -81 -187 -270 -231 -432 -32 -112 -31 -382 0
-494 110 -398 394 -668 797 -759 37 -8 116 -13 205 -13 122 1 160 5 243 27
292 77 531 273 662 542 83 169 100 245 100 450 0 146 -3 182 -23 255 -30 112
-118 289 -181 368 -28 34 -51 66 -51 71 0 6 32 64 70 130 78 133 87 172 47
209 -26 25 -83 30 -109 10 -9 -7 -92 -143 -183 -303 -92 -159 -179 -305 -192
-323 -76 -101 -209 -97 -281 8 -20 30 -23 44 -20 95 5 58 18 84 468 861 l464
802 78 -38 c43 -21 116 -48 163 -61 82 -21 85 -23 72 -43 -8 -12 -69 -116
-135 -232 -92 -159 -122 -220 -122 -246 0 -74 94 -107 142 -50 12 15 88 141
167 278 l144 251 101 11 c261 29 478 138 657 330 95 103 164 219 211 357 99
293 68 589 -90 860 -66 112 -237 283 -350 349 -528 308 -1195 101 -1454 -450
l-39 -84 -569 0 -569 0 -39 84 c-55 117 -112 198 -206 292 -136 136 -288 223
-471 270 -126 32 -303 40 -421 19z m311 -170 c175 -31 364 -131 476 -252 297
-324 314 -788 43 -1125 -30 -38 -58 -68 -62 -68 -4 0 -36 51 -72 113 -35 61
-84 133 -107 158 -93 100 -252 133 -375 77 -119 -55 -196 -161 -206 -285 -6
-80 10 -142 59 -225 21 -36 39 -69 39 -72 0 -26 -186 21 -300 75 -462 219
-626 800 -348 1226 114 175 271 291 477 354 135 40 241 47 376 24z m3141 -15
c301 -77 532 -307 615 -615 31 -112 31 -306 0 -420 -79 -300 -317 -538 -616
-616 -123 -33 -310 -30 -428 5 -233 70 -413 210 -521 407 l-36 66 49 7 c67 9
162 58 206 108 63 69 90 140 90 233 0 71 -4 89 -33 147 -52 106 -150 179 -259
194 l-52 6 26 51 c115 228 367 405 636 448 77 12 232 2 323 -21z m-888 -682
c53 -35 76 -79 76 -144 0 -39 -6 -61 -26 -91 -50 -76 -16 -73 -760 -73 l-663
0 0 170 -1 171 666 -3 666 -3 42 -27z m-278 -500 c0 -23 60 -140 108 -212 26
-39 80 -105 120 -147 l73 -77 -363 -629 -363 -630 -134 2 -133 3 -300 518
c-164 286 -331 574 -370 641 l-70 123 60 65 c78 83 135 167 184 271 l39 84
574 0 c453 0 575 -3 575 -12z m-1851 -79 c20 -11 43 -30 52 -42 18 -25 917
-1581 925 -1600 3 -8 -12 -17 -40 -26 -61 -18 -157 -64 -212 -102 -25 -17 -47
-29 -48 -27 -2 1 -211 363 -465 803 -445 771 -461 801 -461 851 0 127 138 206
249 143z m1315 -1787 c3 -5 -18 -48 -45 -97 -67 -117 -81 -156 -81 -242 0
-132 73 -245 197 -304 51 -24 73 -29 140 -29 68 0 90 5 142 29 83 40 127 87
202 219 l64 113 35 -48 c44 -61 106 -191 127 -268 26 -94 31 -284 10 -386 -39
-196 -146 -373 -298 -494 -135 -108 -267 -163 -441 -185 -432 -55 -855 261
-931 695 -19 111 -19 189 0 300 56 317 294 580 609 670 98 28 259 44 270 27z"/>
<path d="M1200 4765 c-135 -42 -212 -209 -156 -340 22 -52 80 -112 131 -136
54 -25 156 -25 210 0 169 79 202 306 62 426 -43 37 -119 65 -171 64 -17 0 -51
-7 -76 -14z m119 -170 c31 -15 54 -65 44 -93 -32 -92 -163 -78 -163 18 0 39
13 61 45 78 27 15 41 15 74 -3z"/>
<path d="M4367 4086 c-60 -16 -113 -59 -152 -121 -27 -43 -30 -57 -30 -124 1
-89 22 -138 81 -191 108 -94 250 -89 349 13 54 56 75 105 75 177 0 167 -163
291 -323 246z m132 -192 c26 -34 27 -74 1 -106 -54 -70 -164 -14 -145 74 14
60 106 81 144 32z"/>
<path d="M2365 829 c-165 -82 -195 -297 -57 -421 39 -35 119 -68 167 -68 50 0
128 33 170 71 134 124 103 340 -60 415 -65 31 -162 32 -220 3z m170 -174 c32
-31 32 -75 1 -111 -33 -39 -89 -39 -122 0 -49 56 -13 136 61 136 25 0 44 -8
60 -25z"/>
<path d="M3494 2356 c-58 -49 -20 -146 57 -146 43 0 79 39 79 85 0 74 -80 110
-136 61z"/>
</g>
</svg>
